<svg width="104" height="25" viewBox="0 0 104 25" fill="none" xmlns="http://www.w3.org/2000/svg">
<rect x="0.454545" y="0.454545" width="24.0909" height="24.0909" rx="0.681818" fill="white"/>
<path d="M3.09089 2.27271H2.27271V3.09089H3.09089V2.27271Z" fill="black"/>
<path d="M3.90907 2.27271H3.09089V3.09089H3.90907V2.27271Z" fill="black"/>
<path d="M4.72725 2.27271H3.90907V3.09089H4.72725V2.27271Z" fill="black"/>
<path d="M5.54543 2.27271H4.72725V3.09089H5.54543V2.27271Z" fill="black"/>
<path d="M6.36361 2.27271H5.54543V3.09089H6.36361V2.27271Z" fill="black"/>
<path d="M7.1818 2.27271H6.36361V3.09089H7.1818V2.27271Z" fill="black"/>
<path d="M7.99998 2.27271H7.1818V3.09089H7.99998V2.27271Z" fill="black"/>
<path d="M9.63634 2.27271H8.81816V3.09089H9.63634V2.27271Z" fill="black"/>
<path d="M10.4545 2.27271H9.63634V3.09089H10.4545V2.27271Z" fill="black"/>
<path d="M11.2727 2.27271H10.4545V3.09089H11.2727V2.27271Z" fill="black"/>
<path d="M12.0909 2.27271H11.2727V3.09089H12.0909V2.27271Z" fill="black"/>
<path d="M13.7272 2.27271H12.9091V3.09089H13.7272V2.27271Z" fill="black"/>
<path d="M14.5454 2.27271H13.7272V3.09089H14.5454V2.27271Z" fill="black"/>
<path d="M15.3636 2.27271H14.5454V3.09089H15.3636V2.27271Z" fill="black"/>
<path d="M16.1818 2.27271H15.3636V3.09089H16.1818V2.27271Z" fill="black"/>
<path d="M17.8182 2.27271H17V3.09089H17.8182V2.27271Z" fill="black"/>
<path d="M18.6363 2.27271H17.8182V3.09089H18.6363V2.27271Z" fill="black"/>
<path d="M19.4545 2.27271H18.6363V3.09089H19.4545V2.27271Z" fill="black"/>
<path d="M20.2727 2.27271H19.4545V3.09089H20.2727V2.27271Z" fill="black"/>
<path d="M21.0909 2.27271H20.2727V3.09089H21.0909V2.27271Z" fill="black"/>
<path d="M21.9091 2.27271H21.0909V3.09089H21.9091V2.27271Z" fill="black"/>
<path d="M22.7273 2.27271H21.9091V3.09089H22.7273V2.27271Z" fill="black"/>
<path d="M3.09089 3.09089H2.27271V3.90907H3.09089V3.09089Z" fill="black"/>
<path d="M7.99998 3.09089H7.1818L7.1818 3.90907H7.99998V3.09089Z" fill="black"/>
<path d="M12.9091 3.09089H12.0909V3.90907H12.9091V3.09089Z" fill="black"/>
<path d="M13.7272 3.09089H12.9091V3.90907H13.7272V3.09089Z" fill="black"/>
<path d="M14.5454 3.09089H13.7272V3.90907H14.5454V3.09089Z" fill="black"/>
<path d="M17.8182 3.09089H17V3.90907H17.8182V3.09089Z" fill="black"/>
<path d="M22.7273 3.09089H21.9091V3.90907H22.7273V3.09089Z" fill="black"/>
<path d="M3.09089 3.90907H2.27271V4.72725H3.09089V3.90907Z" fill="black"/>
<path d="M4.72725 3.90907H3.90907V4.72725H4.72725V3.90907Z" fill="black"/>
<path d="M5.54543 3.90907H4.72725V4.72725H5.54543V3.90907Z" fill="black"/>
<path d="M6.36361 3.90907H5.54543V4.72725H6.36361V3.90907Z" fill="black"/>
<path d="M7.99998 3.90907H7.1818V4.72725H7.99998V3.90907Z" fill="black"/>
<path d="M10.4545 3.90907H9.63634V4.72725H10.4545V3.90907Z" fill="black"/>
<path d="M11.2727 3.90907H10.4545V4.72725H11.2727V3.90907Z" fill="black"/>
<path d="M12.0909 3.90907H11.2727V4.72725H12.0909V3.90907Z" fill="black"/>
<path d="M12.9091 3.90907H12.0909V4.72725H12.9091V3.90907Z" fill="black"/>
<path d="M13.7272 3.90907H12.9091V4.72725H13.7272V3.90907Z" fill="black"/>
<path d="M14.5454 3.90907H13.7272V4.72725H14.5454V3.90907Z" fill="black"/>
<path d="M15.3636 3.90907H14.5454V4.72725H15.3636V3.90907Z" fill="black"/>
<path d="M16.1818 3.90907H15.3636V4.72725H16.1818V3.90907Z" fill="black"/>
<path d="M17.8182 3.90907H17V4.72725H17.8182V3.90907Z" fill="black"/>
<path d="M19.4545 3.90907H18.6363V4.72725H19.4545V3.90907Z" fill="black"/>
<path d="M20.2727 3.90907H19.4545V4.72725H20.2727V3.90907Z" fill="black"/>
<path d="M21.0909 3.90907H20.2727V4.72725H21.0909V3.90907Z" fill="black"/>
<path d="M22.7273 3.90907H21.9091V4.72725H22.7273V3.90907Z" fill="black"/>
<path d="M3.09089 4.72725H2.27271V5.54543H3.09089V4.72725Z" fill="black"/>
<path d="M4.72725 4.72725H3.90907V5.54543H4.72725V4.72725Z" fill="black"/>
<path d="M5.54543 4.72725H4.72725V5.54543H5.54543V4.72725Z" fill="black"/>
<path d="M6.36361 4.72725H5.54543V5.54543H6.36361V4.72725Z" fill="black"/>
<path d="M7.99998 4.72725H7.1818V5.54543H7.99998V4.72725Z" fill="black"/>
<path d="M9.63634 4.72725H8.81816V5.54543H9.63634V4.72725Z" fill="black"/>
<path d="M12.0909 4.72725H11.2727V5.54543H12.0909V4.72725Z" fill="black"/>
<path d="M12.9091 4.72725H12.0909V5.54543H12.9091V4.72725Z" fill="black"/>
<path d="M16.1818 4.72725H15.3636V5.54543H16.1818V4.72725Z" fill="black"/>
<path d="M17.8182 4.72725H17V5.54543H17.8182V4.72725Z" fill="black"/>
<path d="M19.4545 4.72725H18.6363V5.54543H19.4545V4.72725Z" fill="black"/>
<path d="M20.2727 4.72725H19.4545V5.54543H20.2727V4.72725Z" fill="black"/>
<path d="M21.0909 4.72725H20.2727V5.54543H21.0909V4.72725Z" fill="black"/>
<path d="M22.7273 4.72725H21.9091V5.54543H22.7273V4.72725Z" fill="black"/>
<path d="M3.09089 5.54543H2.27271V6.36361H3.09089V5.54543Z" fill="black"/>
<path d="M4.72725 5.54543H3.90907V6.36361H4.72725V5.54543Z" fill="black"/>
<path d="M5.54543 5.54543H4.72725V6.36361H5.54543V5.54543Z" fill="black"/>
<path d="M6.36361 5.54543H5.54543V6.36361H6.36361V5.54543Z" fill="black"/>
<path d="M7.99998 5.54543H7.1818V6.36361H7.99998V5.54543Z" fill="black"/>
<path d="M9.63634 5.54543H8.81816V6.36361H9.63634V5.54543Z" fill="black"/>
<path d="M10.4545 5.54543H9.63634V6.36361H10.4545V5.54543Z" fill="black"/>
<path d="M12.9091 5.54543H12.0909V6.36361H12.9091V5.54543Z" fill="black"/>
<path d="M15.3636 5.54543H14.5454V6.36361H15.3636V5.54543Z" fill="black"/>
<path d="M17.8182 5.54543H17V6.36361H17.8182V5.54543Z" fill="black"/>
<path d="M19.4545 5.54543H18.6363V6.36361H19.4545V5.54543Z" fill="black"/>
<path d="M20.2727 5.54543H19.4545V6.36361H20.2727V5.54543Z" fill="black"/>
<path d="M21.0909 5.54543H20.2727V6.36361H21.0909V5.54543Z" fill="black"/>
<path d="M22.7273 5.54543H21.9091V6.36361H22.7273V5.54543Z" fill="black"/>
<path d="M3.09089 6.36361H2.27271V7.1818H3.09089V6.36361Z" fill="black"/>
<path d="M7.99998 6.36361H7.1818V7.1818H7.99998V6.36361Z" fill="black"/>
<path d="M9.63634 6.36361H8.81816V7.1818H9.63634V6.36361Z" fill="black"/>
<path d="M11.2727 6.36361H10.4545V7.1818H11.2727V6.36361Z" fill="black"/>
<path d="M14.5454 6.36361H13.7272V7.1818H14.5454L14.5454 6.36361Z" fill="black"/>
<path d="M15.3636 6.36361H14.5454L14.5454 7.1818H15.3636V6.36361Z" fill="black"/>
<path d="M16.1818 6.36361H15.3636V7.1818H16.1818V6.36361Z" fill="black"/>
<path d="M17.8182 6.36361H17V7.1818H17.8182V6.36361Z" fill="black"/>
<path d="M22.7273 6.36361H21.9091V7.1818H22.7273V6.36361Z" fill="black"/>
<path d="M3.09089 7.1818H2.27271V7.99998H3.09089V7.1818Z" fill="black"/>
<path d="M3.90907 7.1818L3.09089 7.1818V7.99998H3.90907V7.1818Z" fill="black"/>
<path d="M4.72725 7.1818H3.90907V7.99998H4.72725V7.1818Z" fill="black"/>
<path d="M5.54543 7.1818H4.72725V7.99998H5.54543V7.1818Z" fill="black"/>
<path d="M6.36361 7.1818H5.54543V7.99998H6.36361V7.1818Z" fill="black"/>
<path d="M7.1818 7.1818L6.36361 7.1818V7.99998H7.1818L7.1818 7.1818Z" fill="black"/>
<path d="M7.99998 7.1818H7.1818L7.1818 7.99998H7.99998V7.1818Z" fill="black"/>
<path d="M9.63634 7.1818H8.81816V7.99998H9.63634V7.1818Z" fill="black"/>
<path d="M11.2727 7.1818H10.4545V7.99998H11.2727V7.1818Z" fill="black"/>
<path d="M12.9091 7.1818H12.0909V7.99998H12.9091V7.1818Z" fill="black"/>
<path d="M14.5454 7.1818H13.7272V7.99998H14.5454V7.1818Z" fill="black"/>
<path d="M16.1818 7.1818H15.3636V7.99998H16.1818V7.1818Z" fill="black"/>
<path d="M17.8182 7.1818H17V7.99998H17.8182V7.1818Z" fill="black"/>
<path d="M18.6363 7.1818L17.8182 7.1818V7.99998H18.6363V7.1818Z" fill="black"/>
<path d="M19.4545 7.1818H18.6363V7.99998H19.4545V7.1818Z" fill="black"/>
<path d="M20.2727 7.1818H19.4545V7.99998H20.2727V7.1818Z" fill="black"/>
<path d="M21.0909 7.1818H20.2727V7.99998H21.0909V7.1818Z" fill="black"/>
<path d="M21.9091 7.1818L21.0909 7.1818V7.99998H21.9091V7.1818Z" fill="black"/>
<path d="M22.7273 7.1818H21.9091V7.99998H22.7273V7.1818Z" fill="black"/>
<path d="M9.63634 7.99998H8.81816V8.81816H9.63634V7.99998Z" fill="black"/>
<path d="M10.4545 7.99998H9.63634V8.81816H10.4545V7.99998Z" fill="black"/>
<path d="M11.2727 7.99998H10.4545V8.81816H11.2727V7.99998Z" fill="black"/>
<path d="M12.0909 7.99998H11.2727V8.81816H12.0909V7.99998Z" fill="black"/>
<path d="M12.9091 7.99998H12.0909V8.81816H12.9091V7.99998Z" fill="black"/>
<path d="M13.7272 7.99998H12.9091V8.81816H13.7272V7.99998Z" fill="black"/>
<path d="M15.3636 7.99998H14.5454L14.5454 8.81816H15.3636V7.99998Z" fill="black"/>
<path d="M16.1818 7.99998H15.3636V8.81816H16.1818V7.99998Z" fill="black"/>
<path d="M3.09089 8.81816H2.27271V9.63634H3.09089V8.81816Z" fill="black"/>
<path d="M3.90907 8.81816H3.09089V9.63634H3.90907V8.81816Z" fill="black"/>
<path d="M4.72725 8.81816H3.90907V9.63634H4.72725V8.81816Z" fill="black"/>
<path d="M6.36361 8.81816H5.54543V9.63634H6.36361V8.81816Z" fill="black"/>
<path d="M7.99998 8.81816H7.1818V9.63634H7.99998V8.81816Z" fill="black"/>
<path d="M9.63634 8.81816H8.81816V9.63634H9.63634V8.81816Z" fill="black"/>
<path d="M11.2727 8.81816H10.4545V9.63634H11.2727V8.81816Z" fill="black"/>
<path d="M15.3636 8.81816H14.5454V9.63634H15.3636V8.81816Z" fill="black"/>
<path d="M16.1818 8.81816H15.3636V9.63634H16.1818V8.81816Z" fill="black"/>
<path d="M17 8.81816H16.1818V9.63634H17V8.81816Z" fill="black"/>
<path d="M17.8182 8.81816H17V9.63634H17.8182V8.81816Z" fill="black"/>
<path d="M18.6363 8.81816H17.8182V9.63634H18.6363V8.81816Z" fill="black"/>
<path d="M19.4545 8.81816H18.6363V9.63634H19.4545V8.81816Z" fill="black"/>
<path d="M20.2727 8.81816H19.4545V9.63634H20.2727V8.81816Z" fill="black"/>
<path d="M22.7273 8.81816H21.9091V9.63634H22.7273V8.81816Z" fill="black"/>
<path d="M4.72725 9.63634H3.90907V10.4545H4.72725V9.63634Z" fill="black"/>
<path d="M5.54543 9.63634H4.72725V10.4545H5.54543V9.63634Z" fill="black"/>
<path d="M7.1818 9.63634H6.36361V10.4545H7.1818L7.1818 9.63634Z" fill="black"/>
<path d="M8.81816 9.63634H7.99998V10.4545H8.81816V9.63634Z" fill="black"/>
<path d="M11.2727 9.63634H10.4545V10.4545H11.2727V9.63634Z" fill="black"/>
<path d="M13.7272 9.63634H12.9091V10.4545H13.7272V9.63634Z" fill="black"/>
<path d="M14.5454 9.63634H13.7272V10.4545H14.5454L14.5454 9.63634Z" fill="black"/>
<path d="M15.3636 9.63634H14.5454L14.5454 10.4545H15.3636V9.63634Z" fill="black"/>
<path d="M17.8182 9.63634H17V10.4545H17.8182V9.63634Z" fill="black"/>
<path d="M18.6363 9.63634H17.8182V10.4545H18.6363V9.63634Z" fill="black"/>
<path d="M19.4545 9.63634H18.6363V10.4545H19.4545V9.63634Z" fill="black"/>
<path d="M20.2727 9.63634H19.4545V10.4545H20.2727V9.63634Z" fill="black"/>
<path d="M21.0909 9.63634H20.2727V10.4545H21.0909V9.63634Z" fill="black"/>
<path d="M21.9091 9.63634H21.0909V10.4545H21.9091V9.63634Z" fill="black"/>
<path d="M3.09089 10.4545H2.27271V11.2727H3.09089V10.4545Z" fill="black"/>
<path d="M3.90907 10.4545H3.09089V11.2727H3.90907V10.4545Z" fill="black"/>
<path d="M4.72725 10.4545H3.90907V11.2727H4.72725V10.4545Z" fill="black"/>
<path d="M7.1818 10.4545H6.36361V11.2727H7.1818V10.4545Z" fill="black"/>
<path d="M7.99998 10.4545H7.1818V11.2727H7.99998V10.4545Z" fill="black"/>
<path d="M13.7272 10.4545H12.9091V11.2727H13.7272V10.4545Z" fill="black"/>
<path d="M14.5454 10.4545H13.7272V11.2727H14.5454V10.4545Z" fill="black"/>
<path d="M15.3636 10.4545H14.5454V11.2727H15.3636V10.4545Z" fill="black"/>
<path d="M17.8182 10.4545H17V11.2727H17.8182V10.4545Z" fill="black"/>
<path d="M18.6363 10.4545H17.8182V11.2727H18.6363V10.4545Z" fill="black"/>
<path d="M19.4545 10.4545H18.6363V11.2727H19.4545V10.4545Z" fill="black"/>
<path d="M20.2727 10.4545H19.4545V11.2727H20.2727V10.4545Z" fill="black"/>
<path d="M21.0909 10.4545H20.2727V11.2727H21.0909V10.4545Z" fill="black"/>
<path d="M21.9091 10.4545H21.0909V11.2727H21.9091V10.4545Z" fill="black"/>
<path d="M22.7273 10.4545H21.9091V11.2727H22.7273V10.4545Z" fill="black"/>
<path d="M3.09089 11.2727H2.27271V12.0909H3.09089V11.2727Z" fill="black"/>
<path d="M6.36361 11.2727H5.54543V12.0909H6.36361V11.2727Z" fill="black"/>
<path d="M7.1818 11.2727H6.36361V12.0909H7.1818V11.2727Z" fill="black"/>
<path d="M8.81816 11.2727H7.99998V12.0909H8.81816V11.2727Z" fill="black"/>
<path d="M11.2727 11.2727H10.4545V12.0909H11.2727V11.2727Z" fill="black"/>
<path d="M12.0909 11.2727H11.2727V12.0909H12.0909V11.2727Z" fill="black"/>
<path d="M12.9091 11.2727H12.0909V12.0909H12.9091V11.2727Z" fill="black"/>
<path d="M14.5454 11.2727H13.7272V12.0909H14.5454V11.2727Z" fill="black"/>
<path d="M15.3636 11.2727H14.5454V12.0909H15.3636V11.2727Z" fill="black"/>
<path d="M17 11.2727H16.1818V12.0909H17V11.2727Z" fill="black"/>
<path d="M17.8182 11.2727H17V12.0909H17.8182V11.2727Z" fill="black"/>
<path d="M3.90907 12.0909H3.09089V12.9091H3.90907V12.0909Z" fill="black"/>
<path d="M5.54543 12.0909H4.72725V12.9091H5.54543V12.0909Z" fill="black"/>
<path d="M6.36361 12.0909H5.54543V12.9091H6.36361V12.0909Z" fill="black"/>
<path d="M7.99998 12.0909H7.1818L7.1818 12.9091H7.99998V12.0909Z" fill="black"/>
<path d="M9.63634 12.0909H8.81816V12.9091H9.63634V12.0909Z" fill="black"/>
<path d="M12.9091 12.0909H12.0909V12.9091H12.9091V12.0909Z" fill="black"/>
<path d="M14.5454 12.0909H13.7272V12.9091H14.5454V12.0909Z" fill="black"/>
<path d="M17 12.0909H16.1818V12.9091H17V12.0909Z" fill="black"/>
<path d="M18.6363 12.0909H17.8182V12.9091H18.6363V12.0909Z" fill="black"/>
<path d="M19.4545 12.0909H18.6363V12.9091H19.4545V12.0909Z" fill="black"/>
<path d="M21.0909 12.0909H20.2727V12.9091H21.0909V12.0909Z" fill="black"/>
<path d="M3.90907 12.9091H3.09089V13.7272H3.90907V12.9091Z" fill="black"/>
<path d="M4.72725 12.9091H3.90907V13.7272H4.72725V12.9091Z" fill="black"/>
<path d="M5.54543 12.9091H4.72725V13.7272H5.54543V12.9091Z" fill="black"/>
<path d="M6.36361 12.9091H5.54543V13.7272H6.36361V12.9091Z" fill="black"/>
<path d="M7.1818 12.9091H6.36361V13.7272H7.1818L7.1818 12.9091Z" fill="black"/>
<path d="M8.81816 12.9091H7.99998V13.7272H8.81816V12.9091Z" fill="black"/>
<path d="M9.63634 12.9091H8.81816V13.7272H9.63634V12.9091Z" fill="black"/>
<path d="M10.4545 12.9091H9.63634V13.7272H10.4545V12.9091Z" fill="black"/>
<path d="M11.2727 12.9091H10.4545V13.7272H11.2727V12.9091Z" fill="black"/>
<path d="M12.0909 12.9091H11.2727V13.7272H12.0909V12.9091Z" fill="black"/>
<path d="M12.9091 12.9091H12.0909V13.7272H12.9091V12.9091Z" fill="black"/>
<path d="M13.7272 12.9091H12.9091V13.7272H13.7272V12.9091Z" fill="black"/>
<path d="M14.5454 12.9091H13.7272V13.7272H14.5454V12.9091Z" fill="black"/>
<path d="M17 12.9091H16.1818V13.7272H17V12.9091Z" fill="black"/>
<path d="M19.4545 12.9091H18.6363V13.7272H19.4545V12.9091Z" fill="black"/>
<path d="M22.7273 12.9091H21.9091V13.7272H22.7273V12.9091Z" fill="black"/>
<path d="M3.09089 13.7272H2.27271V14.5454H3.09089V13.7272Z" fill="black"/>
<path d="M4.72725 13.7272H3.90907V14.5454H4.72725V13.7272Z" fill="black"/>
<path d="M5.54543 13.7272H4.72725V14.5454H5.54543V13.7272Z" fill="black"/>
<path d="M6.36361 13.7272H5.54543V14.5454H6.36361V13.7272Z" fill="black"/>
<path d="M7.1818 13.7272H6.36361V14.5454H7.1818V13.7272Z" fill="black"/>
<path d="M7.99998 13.7272H7.1818V14.5454H7.99998V13.7272Z" fill="black"/>
<path d="M10.4545 13.7272H9.63634V14.5454H10.4545V13.7272Z" fill="black"/>
<path d="M13.7272 13.7272H12.9091V14.5454H13.7272V13.7272Z" fill="black"/>
<path d="M16.1818 13.7272H15.3636V14.5454H16.1818V13.7272Z" fill="black"/>
<path d="M17 13.7272H16.1818V14.5454H17V13.7272Z" fill="black"/>
<path d="M18.6363 13.7272H17.8182V14.5454H18.6363V13.7272Z" fill="black"/>
<path d="M19.4545 13.7272H18.6363V14.5454H19.4545V13.7272Z" fill="black"/>
<path d="M20.2727 13.7272H19.4545V14.5454H20.2727V13.7272Z" fill="black"/>
<path d="M21.0909 13.7272H20.2727V14.5454H21.0909V13.7272Z" fill="black"/>
<path d="M21.9091 13.7272H21.0909V14.5454H21.9091V13.7272Z" fill="black"/>
<path d="M22.7273 13.7272H21.9091V14.5454H22.7273V13.7272Z" fill="black"/>
<path d="M5.54543 14.5454H4.72725V15.3636H5.54543V14.5454Z" fill="black"/>
<path d="M8.81816 14.5454L7.99998 14.5454V15.3636H8.81816V14.5454Z" fill="black"/>
<path d="M9.63634 14.5454L8.81816 14.5454V15.3636H9.63634V14.5454Z" fill="black"/>
<path d="M10.4545 14.5454H9.63634V15.3636H10.4545V14.5454Z" fill="black"/>
<path d="M11.2727 14.5454L10.4545 14.5454V15.3636H11.2727V14.5454Z" fill="black"/>
<path d="M12.0909 14.5454H11.2727V15.3636H12.0909V14.5454Z" fill="black"/>
<path d="M13.7272 14.5454H12.9091V15.3636H13.7272V14.5454Z" fill="black"/>
<path d="M14.5454 14.5454L13.7272 14.5454V15.3636H14.5454V14.5454Z" fill="black"/>
<path d="M15.3636 14.5454L14.5454 14.5454V15.3636H15.3636V14.5454Z" fill="black"/>
<path d="M18.6363 14.5454H17.8182V15.3636H18.6363V14.5454Z" fill="black"/>
<path d="M19.4545 14.5454H18.6363V15.3636H19.4545V14.5454Z" fill="black"/>
<path d="M3.90907 15.3636H3.09089V16.1818H3.90907V15.3636Z" fill="black"/>
<path d="M5.54543 15.3636H4.72725V16.1818H5.54543V15.3636Z" fill="black"/>
<path d="M6.36361 15.3636H5.54543V16.1818H6.36361V15.3636Z" fill="black"/>
<path d="M7.99998 15.3636H7.1818V16.1818H7.99998V15.3636Z" fill="black"/>
<path d="M9.63634 15.3636H8.81816V16.1818H9.63634V15.3636Z" fill="black"/>
<path d="M12.9091 15.3636H12.0909V16.1818H12.9091V15.3636Z" fill="black"/>
<path d="M14.5454 15.3636H13.7272V16.1818H14.5454V15.3636Z" fill="black"/>
<path d="M16.1818 15.3636H15.3636V16.1818H16.1818V15.3636Z" fill="black"/>
<path d="M17 15.3636H16.1818V16.1818H17V15.3636Z" fill="black"/>
<path d="M17.8182 15.3636H17V16.1818H17.8182V15.3636Z" fill="black"/>
<path d="M18.6363 15.3636H17.8182V16.1818H18.6363V15.3636Z" fill="black"/>
<path d="M19.4545 15.3636H18.6363V16.1818H19.4545V15.3636Z" fill="black"/>
<path d="M20.2727 15.3636H19.4545V16.1818H20.2727V15.3636Z" fill="black"/>
<path d="M22.7273 15.3636H21.9091V16.1818H22.7273V15.3636Z" fill="black"/>
<path d="M9.63634 16.1818H8.81816V17H9.63634V16.1818Z" fill="black"/>
<path d="M11.2727 16.1818H10.4545V17H11.2727V16.1818Z" fill="black"/>
<path d="M13.7272 16.1818H12.9091V17H13.7272V16.1818Z" fill="black"/>
<path d="M15.3636 16.1818H14.5454L14.5454 17H15.3636V16.1818Z" fill="black"/>
<path d="M16.1818 16.1818H15.3636V17H16.1818V16.1818Z" fill="black"/>
<path d="M19.4545 16.1818H18.6363V17H19.4545V16.1818Z" fill="black"/>
<path d="M20.2727 16.1818H19.4545V17H20.2727V16.1818Z" fill="black"/>
<path d="M21.9091 16.1818H21.0909V17H21.9091V16.1818Z" fill="black"/>
<path d="M3.09089 17H2.27271V17.8182H3.09089V17Z" fill="black"/>
<path d="M3.90907 17H3.09089V17.8182H3.90907V17Z" fill="black"/>
<path d="M4.72725 17H3.90907V17.8182H4.72725V17Z" fill="black"/>
<path d="M5.54543 17H4.72725V17.8182H5.54543V17Z" fill="black"/>
<path d="M6.36361 17H5.54543V17.8182H6.36361V17Z" fill="black"/>
<path d="M7.1818 17H6.36361V17.8182H7.1818V17Z" fill="black"/>
<path d="M7.99998 17H7.1818V17.8182H7.99998V17Z" fill="black"/>
<path d="M11.2727 17H10.4545V17.8182H11.2727V17Z" fill="black"/>
<path d="M12.0909 17H11.2727V17.8182H12.0909V17Z" fill="black"/>
<path d="M12.9091 17H12.0909V17.8182H12.9091V17Z" fill="black"/>
<path d="M14.5454 17H13.7272V17.8182H14.5454L14.5454 17Z" fill="black"/>
<path d="M16.1818 17H15.3636V17.8182H16.1818V17Z" fill="black"/>
<path d="M17.8182 17H17V17.8182H17.8182V17Z" fill="black"/>
<path d="M19.4545 17H18.6363V17.8182H19.4545V17Z" fill="black"/>
<path d="M20.2727 17H19.4545V17.8182H20.2727V17Z" fill="black"/>
<path d="M21.9091 17H21.0909V17.8182H21.9091V17Z" fill="black"/>
<path d="M3.09089 17.8182H2.27271V18.6363H3.09089V17.8182Z" fill="black"/>
<path d="M7.99998 17.8182H7.1818L7.1818 18.6363H7.99998V17.8182Z" fill="black"/>
<path d="M10.4545 17.8182H9.63634V18.6363H10.4545V17.8182Z" fill="black"/>
<path d="M15.3636 17.8182H14.5454L14.5454 18.6363H15.3636V17.8182Z" fill="black"/>
<path d="M16.1818 17.8182H15.3636V18.6363H16.1818V17.8182Z" fill="black"/>
<path d="M19.4545 17.8182H18.6363V18.6363H19.4545V17.8182Z" fill="black"/>
<path d="M21.9091 17.8182H21.0909V18.6363H21.9091V17.8182Z" fill="black"/>
<path d="M3.09089 18.6363H2.27271V19.4545H3.09089V18.6363Z" fill="black"/>
<path d="M4.72725 18.6363H3.90907V19.4545H4.72725V18.6363Z" fill="black"/>
<path d="M5.54543 18.6363H4.72725V19.4545H5.54543V18.6363Z" fill="black"/>
<path d="M6.36361 18.6363H5.54543V19.4545H6.36361V18.6363Z" fill="black"/>
<path d="M7.99998 18.6363H7.1818V19.4545H7.99998V18.6363Z" fill="black"/>
<path d="M9.63634 18.6363H8.81816V19.4545H9.63634V18.6363Z" fill="black"/>
<path d="M10.4545 18.6363H9.63634V19.4545H10.4545V18.6363Z" fill="black"/>
<path d="M11.2727 18.6363H10.4545V19.4545H11.2727V18.6363Z" fill="black"/>
<path d="M13.7272 18.6363H12.9091V19.4545H13.7272V18.6363Z" fill="black"/>
<path d="M14.5454 18.6363H13.7272V19.4545H14.5454L14.5454 18.6363Z" fill="black"/>
<path d="M16.1818 18.6363H15.3636V19.4545H16.1818V18.6363Z" fill="black"/>
<path d="M17 18.6363H16.1818V19.4545H17V18.6363Z" fill="black"/>
<path d="M17.8182 18.6363H17V19.4545H17.8182V18.6363Z" fill="black"/>
<path d="M18.6363 18.6363H17.8182V19.4545H18.6363V18.6363Z" fill="black"/>
<path d="M19.4545 18.6363H18.6363V19.4545H19.4545V18.6363Z" fill="black"/>
<path d="M21.0909 18.6363H20.2727V19.4545H21.0909V18.6363Z" fill="black"/>
<path d="M21.9091 18.6363H21.0909V19.4545H21.9091V18.6363Z" fill="black"/>
<path d="M3.09089 19.4545H2.27271V20.2727H3.09089V19.4545Z" fill="black"/>
<path d="M4.72725 19.4545H3.90907V20.2727H4.72725V19.4545Z" fill="black"/>
<path d="M5.54543 19.4545H4.72725V20.2727H5.54543V19.4545Z" fill="black"/>
<path d="M6.36361 19.4545H5.54543V20.2727H6.36361V19.4545Z" fill="black"/>
<path d="M7.99998 19.4545H7.1818V20.2727H7.99998V19.4545Z" fill="black"/>
<path d="M10.4545 19.4545H9.63634V20.2727H10.4545V19.4545Z" fill="black"/>
<path d="M11.2727 19.4545H10.4545V20.2727H11.2727V19.4545Z" fill="black"/>
<path d="M12.0909 19.4545H11.2727V20.2727H12.0909V19.4545Z" fill="black"/>
<path d="M14.5454 19.4545H13.7272V20.2727H14.5454V19.4545Z" fill="black"/>
<path d="M15.3636 19.4545H14.5454V20.2727H15.3636V19.4545Z" fill="black"/>
<path d="M21.0909 19.4545H20.2727V20.2727H21.0909V19.4545Z" fill="black"/>
<path d="M22.7273 19.4545H21.9091V20.2727H22.7273V19.4545Z" fill="black"/>
<path d="M3.09089 20.2727H2.27271V21.0909H3.09089V20.2727Z" fill="black"/>
<path d="M4.72725 20.2727H3.90907V21.0909H4.72725V20.2727Z" fill="black"/>
<path d="M5.54543 20.2727H4.72725V21.0909H5.54543V20.2727Z" fill="black"/>
<path d="M6.36361 20.2727H5.54543V21.0909H6.36361V20.2727Z" fill="black"/>
<path d="M7.99998 20.2727H7.1818V21.0909H7.99998V20.2727Z" fill="black"/>
<path d="M9.63634 20.2727H8.81816V21.0909H9.63634V20.2727Z" fill="black"/>
<path d="M10.4545 20.2727H9.63634V21.0909H10.4545V20.2727Z" fill="black"/>
<path d="M12.0909 20.2727H11.2727V21.0909H12.0909V20.2727Z" fill="black"/>
<path d="M14.5454 20.2727H13.7272V21.0909H14.5454V20.2727Z" fill="black"/>
<path d="M15.3636 20.2727H14.5454V21.0909H15.3636V20.2727Z" fill="black"/>
<path d="M16.1818 20.2727H15.3636V21.0909H16.1818V20.2727Z" fill="black"/>
<path d="M17 20.2727H16.1818V21.0909H17V20.2727Z" fill="black"/>
<path d="M21.0909 20.2727H20.2727V21.0909H21.0909V20.2727Z" fill="black"/>
<path d="M21.9091 20.2727H21.0909V21.0909H21.9091V20.2727Z" fill="black"/>
<path d="M3.09089 21.0909H2.27271V21.9091H3.09089V21.0909Z" fill="black"/>
<path d="M7.99998 21.0909H7.1818V21.9091H7.99998V21.0909Z" fill="black"/>
<path d="M9.63634 21.0909H8.81816V21.9091H9.63634V21.0909Z" fill="black"/>
<path d="M10.4545 21.0909H9.63634V21.9091H10.4545V21.0909Z" fill="black"/>
<path d="M12.0909 21.0909H11.2727V21.9091H12.0909V21.0909Z" fill="black"/>
<path d="M13.7272 21.0909H12.9091V21.9091H13.7272V21.0909Z" fill="black"/>
<path d="M14.5454 21.0909H13.7272V21.9091H14.5454V21.0909Z" fill="black"/>
<path d="M16.1818 21.0909H15.3636V21.9091H16.1818V21.0909Z" fill="black"/>
<path d="M17 21.0909H16.1818V21.9091H17V21.0909Z" fill="black"/>
<path d="M18.6363 21.0909H17.8182V21.9091H18.6363V21.0909Z" fill="black"/>
<path d="M20.2727 21.0909H19.4545V21.9091H20.2727V21.0909Z" fill="black"/>
<path d="M21.0909 21.0909H20.2727V21.9091H21.0909V21.0909Z" fill="black"/>
<path d="M21.9091 21.0909H21.0909V21.9091H21.9091V21.0909Z" fill="black"/>
<path d="M3.09089 21.9091H2.27271V22.7273H3.09089V21.9091Z" fill="black"/>
<path d="M3.90907 21.9091H3.09089V22.7273H3.90907V21.9091Z" fill="black"/>
<path d="M4.72725 21.9091H3.90907V22.7273H4.72725V21.9091Z" fill="black"/>
<path d="M5.54543 21.9091H4.72725V22.7273H5.54543V21.9091Z" fill="black"/>
<path d="M6.36361 21.9091H5.54543V22.7273H6.36361V21.9091Z" fill="black"/>
<path d="M7.1818 21.9091H6.36361V22.7273H7.1818L7.1818 21.9091Z" fill="black"/>
<path d="M7.99998 21.9091H7.1818L7.1818 22.7273H7.99998V21.9091Z" fill="black"/>
<path d="M9.63634 21.9091H8.81816V22.7273H9.63634V21.9091Z" fill="black"/>
<path d="M11.2727 21.9091H10.4545V22.7273H11.2727V21.9091Z" fill="black"/>
<path d="M12.0909 21.9091H11.2727V22.7273H12.0909V21.9091Z" fill="black"/>
<path d="M12.9091 21.9091H12.0909V22.7273H12.9091V21.9091Z" fill="black"/>
<path d="M14.5454 21.9091H13.7272V22.7273H14.5454V21.9091Z" fill="black"/>
<path d="M15.3636 21.9091H14.5454V22.7273H15.3636V21.9091Z" fill="black"/>
<path d="M17.8182 21.9091H17V22.7273H17.8182V21.9091Z" fill="black"/>
<path d="M19.4545 21.9091H18.6363V22.7273H19.4545V21.9091Z" fill="black"/>
<path d="M20.2727 21.9091H19.4545V22.7273H20.2727V21.9091Z" fill="black"/>
<path d="M21.0909 21.9091H20.2727V22.7273H21.0909V21.9091Z" fill="black"/>
<path d="M21.9091 21.9091H21.0909V22.7273H21.9091V21.9091Z" fill="black"/>
<path d="M22.7273 21.9091H21.9091V22.7273H22.7273V21.9091Z" fill="black"/>
<rect x="0.454545" y="0.454545" width="24.0909" height="24.0909" rx="0.681818" stroke="#FAFAFA" stroke-width="0.909091"/>
<path d="M32.525 3.34094C34.525 3.34094 36.0917 3.84094 37.225 4.84094C38.3583 5.84094 38.925 7.24094 38.925 9.04094C38.925 9.75761 38.8167 10.4659 38.6 11.1659C38.3833 11.8659 38.0333 12.5076 37.55 13.0909C37.0833 13.6576 36.4583 14.1159 35.675 14.4659C34.9083 14.7993 33.9667 14.9659 32.85 14.9659H30.175V21.4659H27.575V3.34094H32.525ZM32.825 12.4159C33.5083 12.4159 34.075 12.3076 34.525 12.0909C34.9917 11.8576 35.35 11.5659 35.6 11.2159C35.8667 10.8659 36.05 10.4993 36.15 10.1159C36.2667 9.73261 36.325 9.39094 36.325 9.09094C36.325 8.75761 36.2667 8.40761 36.15 8.04094C36.05 7.65761 35.8667 7.30761 35.6 6.99094C35.35 6.65761 35.0083 6.39094 34.575 6.19094C34.1417 5.97428 33.6 5.86594 32.95 5.86594H30.175V12.4159H32.825ZM46.3891 21.7159C45.4057 21.7159 44.5141 21.5076 43.7141 21.0909C42.9141 20.6743 42.2807 20.0659 41.8141 19.2659C41.3474 18.4493 41.1141 17.4409 41.1141 16.2409C41.1141 15.0743 41.3557 14.0743 41.8391 13.2409C42.3391 12.3909 42.9891 11.7409 43.7891 11.2909C44.6057 10.8243 45.4891 10.5909 46.4391 10.5909C47.4391 10.5909 48.2641 10.7993 48.9141 11.2159C49.5641 11.6326 50.0641 12.1326 50.4141 12.7159L50.2641 13.1159L50.5141 11.0159H52.8391V21.4659H50.3141V18.8159L50.5641 19.4409C50.4974 19.5743 50.3557 19.7659 50.1391 20.0159C49.9224 20.2659 49.6391 20.5243 49.2891 20.7909C48.9391 21.0409 48.5141 21.2576 48.0141 21.4409C47.5307 21.6243 46.9891 21.7159 46.3891 21.7159ZM47.0641 19.6409C47.8974 19.6409 48.5974 19.4243 49.1641 18.9909C49.7474 18.5409 50.1307 17.9326 50.3141 17.1659V15.0159C50.1141 14.3326 49.7057 13.7659 49.0891 13.3159C48.4891 12.8659 47.7891 12.6409 46.9891 12.6409C46.3891 12.6409 45.8391 12.7909 45.3391 13.0909C44.8391 13.3743 44.4391 13.7826 44.1391 14.3159C43.8391 14.8326 43.6891 15.4326 43.6891 16.1159C43.6891 16.7826 43.8391 17.3826 44.1391 17.9159C44.4557 18.4493 44.8724 18.8743 45.3891 19.1909C45.9057 19.4909 46.4641 19.6409 47.0641 19.6409ZM59.8096 21.6909C59.0429 21.6909 58.3096 21.5576 57.6096 21.2909C56.9096 21.0076 56.3179 20.6076 55.8346 20.0909L56.9096 18.6409C57.3429 19.0576 57.7929 19.3743 58.2596 19.5909C58.7429 19.8076 59.1929 19.9159 59.6096 19.9159C60.0929 19.9159 60.5179 19.8243 60.8846 19.6409C61.2512 19.4409 61.4346 19.1159 61.4346 18.6659C61.4346 18.2993 61.3096 18.0159 61.0596 17.8159C60.8262 17.6159 60.5262 17.4493 60.1596 17.3159C59.7929 17.1826 59.4012 17.0576 58.9846 16.9409C58.1179 16.6576 57.4512 16.2576 56.9846 15.7409C56.5346 15.2076 56.3096 14.5826 56.3096 13.8659C56.3096 13.3159 56.4429 12.7993 56.7096 12.3159C56.9929 11.8159 57.4179 11.4159 57.9846 11.1159C58.5512 10.7993 59.2512 10.6409 60.0846 10.6409C60.8179 10.6409 61.4762 10.7326 62.0596 10.9159C62.6429 11.0826 63.1846 11.3743 63.6846 11.7909L62.7096 13.3159C62.4096 13.0159 62.0512 12.7909 61.6346 12.6409C61.2346 12.4743 60.8679 12.3826 60.5346 12.3659C60.0846 12.3659 59.6929 12.4743 59.3596 12.6909C59.0262 12.8909 58.8596 13.1659 58.8596 13.5159C58.8596 13.8659 58.9762 14.1493 59.2096 14.3659C59.4429 14.5659 59.7429 14.7326 60.1096 14.8659C60.4929 14.9826 60.8762 15.1076 61.2596 15.2409C62.0262 15.4909 62.6596 15.8326 63.1596 16.2659C63.6762 16.6993 63.9346 17.3326 63.9346 18.1659C63.9346 18.7993 63.7846 19.3826 63.4846 19.9159C63.1846 20.4493 62.7262 20.8826 62.1096 21.2159C61.5096 21.5326 60.7429 21.6909 59.8096 21.6909ZM70.1611 21.6909C69.3945 21.6909 68.6611 21.5576 67.9611 21.2909C67.2611 21.0076 66.6695 20.6076 66.1861 20.0909L67.2611 18.6409C67.6945 19.0576 68.1445 19.3743 68.6111 19.5909C69.0945 19.8076 69.5445 19.9159 69.9611 19.9159C70.4445 19.9159 70.8695 19.8243 71.2361 19.6409C71.6028 19.4409 71.7861 19.1159 71.7861 18.6659C71.7861 18.2993 71.6611 18.0159 71.4111 17.8159C71.1778 17.6159 70.8778 17.4493 70.5111 17.3159C70.1445 17.1826 69.7528 17.0576 69.3361 16.9409C68.4695 16.6576 67.8028 16.2576 67.3361 15.7409C66.8861 15.2076 66.6611 14.5826 66.6611 13.8659C66.6611 13.3159 66.7945 12.7993 67.0611 12.3159C67.3445 11.8159 67.7695 11.4159 68.3361 11.1159C68.9028 10.7993 69.6028 10.6409 70.4361 10.6409C71.1695 10.6409 71.8278 10.7326 72.4111 10.9159C72.9945 11.0826 73.5361 11.3743 74.0361 11.7909L73.0611 13.3159C72.7611 13.0159 72.4028 12.7909 71.9861 12.6409C71.5861 12.4743 71.2195 12.3826 70.8861 12.3659C70.4361 12.3659 70.0445 12.4743 69.7111 12.6909C69.3778 12.8909 69.2111 13.1659 69.2111 13.5159C69.2111 13.8659 69.3278 14.1493 69.5611 14.3659C69.7945 14.5659 70.0945 14.7326 70.4611 14.8659C70.8445 14.9826 71.2278 15.1076 71.6111 15.2409C72.3778 15.4909 73.0111 15.8326 73.5111 16.2659C74.0278 16.6993 74.2861 17.3326 74.2861 18.1659C74.2861 18.7993 74.1361 19.3826 73.8361 19.9159C73.5361 20.4493 73.0778 20.8826 72.4611 21.2159C71.8611 21.5326 71.0945 21.6909 70.1611 21.6909ZM81.7627 21.7159C80.7794 21.7159 79.896 21.4909 79.1127 21.0409C78.3294 20.5743 77.7127 19.9159 77.2627 19.0659C76.8127 18.2159 76.5877 17.2243 76.5877 16.0909C76.5877 14.9243 76.8294 13.9326 77.3127 13.1159C77.796 12.2993 78.446 11.6743 79.2627 11.2409C80.096 10.8076 81.0294 10.5909 82.0627 10.5909C82.8627 10.5909 83.621 10.7576 84.3377 11.0909C85.071 11.4076 85.646 11.8576 86.0627 12.4409L85.9627 13.3159V2.04094H88.4877V21.4659H85.9377V18.9659L86.2127 19.6409C85.7127 20.2409 85.0794 20.7409 84.3127 21.1409C83.5627 21.5243 82.7127 21.7159 81.7627 21.7159ZM82.5377 19.5909C83.421 19.5909 84.1544 19.3659 84.7377 18.9159C85.3377 18.4493 85.7377 17.8326 85.9377 17.0659V14.9909C85.7544 14.2909 85.346 13.7159 84.7127 13.2659C84.096 12.8159 83.371 12.5909 82.5377 12.5909C81.9377 12.5909 81.3794 12.7409 80.8627 13.0409C80.346 13.3243 79.9294 13.7326 79.6127 14.2659C79.3127 14.7826 79.1627 15.3826 79.1627 16.0659C79.1627 16.7159 79.3127 17.3076 79.6127 17.8409C79.9294 18.3743 80.346 18.7993 80.8627 19.1159C81.3794 19.4326 81.9377 19.5909 82.5377 19.5909ZM94.7041 11.0159L94.9291 13.4409L94.8291 13.0909C95.1624 12.3409 95.6958 11.7409 96.4291 11.2909C97.1791 10.8409 98.0541 10.6159 99.0541 10.6159C100.037 10.6159 100.846 10.9076 101.479 11.4909C102.112 12.0576 102.437 12.8076 102.454 13.7409V21.4659H99.9291V14.6159C99.9124 14.0826 99.7541 13.6493 99.4541 13.3159C99.1541 12.9659 98.6874 12.7826 98.0541 12.7659C97.1708 12.7659 96.4291 13.1326 95.8291 13.8659C95.2458 14.5993 94.9541 15.5409 94.9541 16.6909V21.4659H92.4291V11.0159H94.7041Z" fill="#FAFAFA"/>
</svg>
